<mxfile host="app.diagrams.net" modified="2022-12-14T11:29:46.076Z" agent="5.0 (Windows NT 10.0; Win64; x64) AppleWebKit/537.36 (KHTML, like Gecko) Chrome/108.0.0.0 Safari/537.36" etag="oDk6wixhYNaiSRYt8uwU" version="20.6.2" type="github">
  <diagram id="COCgU2y_MPERz97JsO5c" name="Страница 1">
    <mxGraphModel dx="2031" dy="1089" grid="1" gridSize="10" guides="1" tooltips="1" connect="1" arrows="1" fold="1" page="1" pageScale="1" pageWidth="827" pageHeight="1169" math="0" shadow="0">
      <root>
        <mxCell id="0" />
        <mxCell id="1" parent="0" />
        <mxCell id="kXSp-0wj3QZkAN32-yHx-2" value="" style="rounded=0;whiteSpace=wrap;html=1;fillColor=none;fontColor=#000000;strokeColor=#000000;dashed=1;labelBackgroundColor=#;" vertex="1" parent="1">
          <mxGeometry x="80" y="80" width="450" height="160" as="geometry" />
        </mxCell>
        <mxCell id="kXSp-0wj3QZkAN32-yHx-3" value="Core" style="text;html=1;strokeColor=#000000;fillColor=none;align=center;verticalAlign=middle;whiteSpace=wrap;rounded=0;fontColor=#000000;labelBackgroundColor=#;" vertex="1" parent="1">
          <mxGeometry x="80" y="80" width="50" height="20" as="geometry" />
        </mxCell>
        <mxCell id="kXSp-0wj3QZkAN32-yHx-14" value="" style="rounded=0;whiteSpace=wrap;html=1;fillColor=none;fontColor=#000000;strokeColor=#000000;dashed=1;labelBackgroundColor=#;" vertex="1" parent="1">
          <mxGeometry x="910" y="60" width="480" height="360" as="geometry" />
        </mxCell>
        <mxCell id="kXSp-0wj3QZkAN32-yHx-15" value="Components" style="text;html=1;strokeColor=#000000;fillColor=none;align=center;verticalAlign=middle;whiteSpace=wrap;rounded=0;fontColor=#000000;labelBackgroundColor=#;" vertex="1" parent="1">
          <mxGeometry x="910" y="60" width="80" height="40" as="geometry" />
        </mxCell>
        <mxCell id="kXSp-0wj3QZkAN32-yHx-43" value="" style="rounded=0;whiteSpace=wrap;html=1;strokeColor=#000000;fontSize=10;fillColor=none;fontColor=#000000;labelBackgroundColor=#;" vertex="1" parent="1">
          <mxGeometry x="80" y="460" width="90" height="70" as="geometry" />
        </mxCell>
        <mxCell id="kXSp-0wj3QZkAN32-yHx-46" value="HitPoints" style="rounded=0;whiteSpace=wrap;html=1;strokeColor=#000000;fontSize=10;fillColor=none;fontColor=#000000;labelBackgroundColor=#;" vertex="1" parent="1">
          <mxGeometry x="80" y="460" width="50" height="20" as="geometry" />
        </mxCell>
        <mxCell id="kXSp-0wj3QZkAN32-yHx-49" value="&lt;pre style=&quot;font-family: Consolas, monospace;&quot;&gt;IntBehaviour&lt;/pre&gt;" style="rounded=0;whiteSpace=wrap;html=1;strokeColor=#000000;fontSize=10;fillColor=#fff2cc;labelBackgroundColor=#;fontColor=#000000;" vertex="1" parent="1">
          <mxGeometry x="90" y="490" width="70" height="30" as="geometry" />
        </mxCell>
        <mxCell id="kXSp-0wj3QZkAN32-yHx-70" value="" style="rounded=0;whiteSpace=wrap;html=1;strokeColor=#000000;fontSize=10;fillColor=none;fontColor=#000000;labelBackgroundColor=#;" vertex="1" parent="1">
          <mxGeometry x="650" y="700" width="490" height="220" as="geometry" />
        </mxCell>
        <mxCell id="kXSp-0wj3QZkAN32-yHx-71" value="&lt;pre style=&quot;font-family: Consolas, monospace;&quot;&gt;HitPointsMechanics_Death&lt;/pre&gt;" style="rounded=0;whiteSpace=wrap;html=1;strokeColor=#000000;fontSize=10;fillColor=#fff2cc;labelBackgroundColor=#;fontColor=#000000;" vertex="1" parent="1">
          <mxGeometry x="650" y="700" width="140" height="20" as="geometry" />
        </mxCell>
        <mxCell id="kXSp-0wj3QZkAN32-yHx-72" style="edgeStyle=orthogonalEdgeStyle;rounded=0;orthogonalLoop=1;jettySize=auto;html=1;exitX=1;exitY=0.5;exitDx=0;exitDy=0;fontSize=10;" edge="1" parent="1" target="kXSp-0wj3QZkAN32-yHx-75">
          <mxGeometry relative="1" as="geometry">
            <mxPoint x="170" y="605" as="sourcePoint" />
          </mxGeometry>
        </mxCell>
        <mxCell id="kXSp-0wj3QZkAN32-yHx-79" style="edgeStyle=orthogonalEdgeStyle;rounded=0;orthogonalLoop=1;jettySize=auto;html=1;exitX=1;exitY=0.75;exitDx=0;exitDy=0;entryX=-0.03;entryY=0.67;entryDx=0;entryDy=0;entryPerimeter=0;fontSize=10;" edge="1" parent="1" target="kXSp-0wj3QZkAN32-yHx-77">
          <mxGeometry relative="1" as="geometry">
            <mxPoint x="170" y="612.5" as="sourcePoint" />
          </mxGeometry>
        </mxCell>
        <mxCell id="kXSp-0wj3QZkAN32-yHx-81" value="&lt;pre style=&quot;font-family: Consolas, monospace;&quot;&gt;&lt;pre style=&quot;font-family: Consolas, monospace;&quot;&gt;field:IntBehaviour&lt;/pre&gt;&lt;/pre&gt;" style="rounded=0;whiteSpace=wrap;html=1;strokeColor=#000000;fontSize=10;fillColor=none;fontColor=#000000;labelBackgroundColor=#;" vertex="1" parent="1">
          <mxGeometry x="660" y="730" width="110" height="25" as="geometry" />
        </mxCell>
        <mxCell id="kXSp-0wj3QZkAN32-yHx-83" value="&lt;pre style=&quot;font-family: Consolas, monospace;&quot;&gt;&lt;pre style=&quot;font-family: Consolas, monospace;&quot;&gt;field:EventReceiver&lt;/pre&gt;&lt;/pre&gt;" style="rounded=0;whiteSpace=wrap;html=1;strokeColor=#000000;fontSize=10;fillColor=none;fontColor=#000000;labelBackgroundColor=#;" vertex="1" parent="1">
          <mxGeometry x="660" y="770" width="110" height="25" as="geometry" />
        </mxCell>
        <mxCell id="kXSp-0wj3QZkAN32-yHx-191" style="edgeStyle=orthogonalEdgeStyle;rounded=0;orthogonalLoop=1;jettySize=auto;html=1;exitX=0;exitY=0.5;exitDx=0;exitDy=0;entryX=1;entryY=0.5;entryDx=0;entryDy=0;labelBackgroundColor=#;fontSize=10;fontColor=#000000;strokeColor=#000000;" edge="1" parent="1" source="kXSp-0wj3QZkAN32-yHx-86" target="kXSp-0wj3QZkAN32-yHx-189">
          <mxGeometry relative="1" as="geometry" />
        </mxCell>
        <mxCell id="kXSp-0wj3QZkAN32-yHx-86" value="&lt;pre style=&quot;font-family: Consolas, monospace;&quot;&gt;&lt;pre style=&quot;font-family: Consolas, monospace;&quot;&gt;&lt;span style=&quot;font-family: Helvetica;&quot;&gt;HitPoints&lt;/span&gt;&lt;br&gt;&lt;/pre&gt;&lt;/pre&gt;" style="rounded=0;whiteSpace=wrap;html=1;strokeColor=#000000;fontSize=10;fillColor=#d5e8d4;labelBackgroundColor=#;fontColor=#000000;" vertex="1" parent="1">
          <mxGeometry x="260" y="642.5" width="50" height="30" as="geometry" />
        </mxCell>
        <mxCell id="kXSp-0wj3QZkAN32-yHx-89" value="&lt;pre style=&quot;font-family: Consolas, monospace;&quot;&gt;&lt;pre style=&quot;font-family: Consolas, monospace;&quot;&gt;&lt;span style=&quot;&quot;&gt;method:&lt;/span&gt;OnHitPointsChanged&lt;/pre&gt;&lt;/pre&gt;" style="rounded=0;whiteSpace=wrap;html=1;strokeColor=#000000;fontSize=10;fillColor=none;fontColor=#000000;labelBackgroundColor=#;" vertex="1" parent="1">
          <mxGeometry x="660" y="885" width="150" height="25" as="geometry" />
        </mxCell>
        <mxCell id="kXSp-0wj3QZkAN32-yHx-108" value="" style="rounded=0;whiteSpace=wrap;html=1;strokeColor=#000000;fontSize=10;fillColor=none;fontColor=#000000;labelBackgroundColor=#;" vertex="1" parent="1">
          <mxGeometry x="80" y="550" width="170" height="160" as="geometry" />
        </mxCell>
        <mxCell id="kXSp-0wj3QZkAN32-yHx-109" value="Death" style="rounded=0;whiteSpace=wrap;html=1;strokeColor=#000000;fontSize=10;fillColor=none;fontColor=#000000;labelBackgroundColor=#;" vertex="1" parent="1">
          <mxGeometry x="80" y="550" width="130" height="20" as="geometry" />
        </mxCell>
        <mxCell id="kXSp-0wj3QZkAN32-yHx-121" value="&lt;pre style=&quot;font-family: Consolas, monospace;&quot;&gt;&lt;pre style=&quot;font-family: Consolas, monospace;&quot;&gt;method:&lt;span style=&quot;&quot;&gt;OnDisable&lt;/span&gt;&lt;/pre&gt;&lt;/pre&gt;" style="rounded=0;whiteSpace=wrap;html=1;strokeColor=#000000;fontSize=10;fillColor=none;fontColor=#000000;labelBackgroundColor=#;" vertex="1" parent="1">
          <mxGeometry x="660" y="850" width="100" height="25" as="geometry" />
        </mxCell>
        <mxCell id="kXSp-0wj3QZkAN32-yHx-132" value="" style="rounded=0;whiteSpace=wrap;html=1;strokeColor=#000000;fontSize=10;fillColor=none;fontColor=#000000;labelBackgroundColor=#;" vertex="1" parent="1">
          <mxGeometry x="650" y="567.5" width="140" height="92.5" as="geometry" />
        </mxCell>
        <mxCell id="kXSp-0wj3QZkAN32-yHx-133" value="&lt;pre style=&quot;font-family: Consolas, monospace;&quot;&gt;EventReceiver&lt;/pre&gt;" style="rounded=0;whiteSpace=wrap;html=1;strokeColor=#000000;fontSize=10;fillColor=#fff2cc;labelBackgroundColor=#;fontColor=#000000;" vertex="1" parent="1">
          <mxGeometry x="650" y="567.5" width="80" height="20" as="geometry" />
        </mxCell>
        <mxCell id="kXSp-0wj3QZkAN32-yHx-135" value="&lt;pre style=&quot;font-family: Consolas, monospace;&quot;&gt;&lt;pre style=&quot;font-family: Consolas, monospace;&quot;&gt;&lt;span style=&quot;&quot;&gt;Event:&lt;/span&gt;Action&lt;/pre&gt;&lt;/pre&gt;" style="rounded=0;whiteSpace=wrap;html=1;strokeColor=#000000;fontSize=10;fillColor=none;fontColor=#000000;labelBackgroundColor=#;" vertex="1" parent="1">
          <mxGeometry x="660" y="595" width="80" height="25" as="geometry" />
        </mxCell>
        <mxCell id="kXSp-0wj3QZkAN32-yHx-136" value="&lt;pre style=&quot;font-family: Consolas, monospace;&quot;&gt;&lt;pre style=&quot;font-family: Consolas, monospace;&quot;&gt;method&lt;span style=&quot;&quot;&gt;:&lt;/span&gt;Call&lt;span style=&quot;&quot;&gt;(&lt;/span&gt;Action)&lt;br&gt;&lt;/pre&gt;&lt;/pre&gt;" style="rounded=0;whiteSpace=wrap;html=1;strokeColor=#000000;fontSize=10;fillColor=none;fontColor=#000000;labelBackgroundColor=#;" vertex="1" parent="1">
          <mxGeometry x="660" y="625" width="110" height="25" as="geometry" />
        </mxCell>
        <mxCell id="kXSp-0wj3QZkAN32-yHx-137" value="" style="rounded=0;whiteSpace=wrap;html=1;strokeColor=#000000;fontSize=10;fillColor=none;fontColor=#000000;labelBackgroundColor=#;" vertex="1" parent="1">
          <mxGeometry x="870" y="567.5" width="270" height="122.5" as="geometry" />
        </mxCell>
        <mxCell id="kXSp-0wj3QZkAN32-yHx-138" value="&lt;pre style=&quot;font-family: Consolas, monospace;&quot;&gt;IntBehaviour&lt;/pre&gt;" style="rounded=0;whiteSpace=wrap;html=1;strokeColor=#000000;fontSize=10;fillColor=#fff2cc;labelBackgroundColor=#;fontColor=#000000;" vertex="1" parent="1">
          <mxGeometry x="870" y="567.5" width="80" height="20" as="geometry" />
        </mxCell>
        <mxCell id="kXSp-0wj3QZkAN32-yHx-139" value="&lt;pre style=&quot;font-family: Consolas, monospace;&quot;&gt;&lt;pre style=&quot;font-family: Consolas, monospace;&quot;&gt;&lt;pre style=&quot;font-family: Consolas, monospace;&quot;&gt;field:&lt;span style=&quot;&quot;&gt;int&lt;/span&gt;&lt;/pre&gt;&lt;/pre&gt;&lt;/pre&gt;" style="rounded=0;whiteSpace=wrap;html=1;strokeColor=#000000;fontSize=10;fillColor=none;fontColor=#000000;labelBackgroundColor=#;" vertex="1" parent="1">
          <mxGeometry x="880" y="595" width="60" height="25" as="geometry" />
        </mxCell>
        <mxCell id="kXSp-0wj3QZkAN32-yHx-140" value="&lt;pre style=&quot;font-family: Consolas, monospace;&quot;&gt;&lt;pre style=&quot;font-family: Consolas, monospace;&quot;&gt;&lt;pre style=&quot;font-family: Consolas, monospace;&quot;&gt;Event:Action&lt;/pre&gt;&lt;/pre&gt;&lt;/pre&gt;" style="rounded=0;whiteSpace=wrap;html=1;strokeColor=#000000;fontSize=10;fillColor=none;fontColor=#000000;labelBackgroundColor=#;" vertex="1" parent="1">
          <mxGeometry x="880" y="625" width="75" height="25" as="geometry" />
        </mxCell>
        <mxCell id="kXSp-0wj3QZkAN32-yHx-141" value="&lt;pre style=&quot;font-family: Consolas, monospace;&quot;&gt;&lt;pre style=&quot;font-family: Consolas, monospace;&quot;&gt;&lt;pre style=&quot;font-family: Consolas, monospace;&quot;&gt;&lt;pre style=&quot;font-family: Consolas, monospace;&quot;&gt;&lt;span style=&quot;&quot;&gt;property: &lt;/span&gt;Value&lt;/pre&gt;&lt;/pre&gt;&lt;/pre&gt;&lt;/pre&gt;" style="rounded=0;whiteSpace=wrap;html=1;strokeColor=#000000;fontSize=10;fillColor=none;fontColor=#000000;labelBackgroundColor=#;" vertex="1" parent="1">
          <mxGeometry x="880" y="655" width="90" height="25" as="geometry" />
        </mxCell>
        <mxCell id="kXSp-0wj3QZkAN32-yHx-192" style="edgeStyle=orthogonalEdgeStyle;rounded=0;orthogonalLoop=1;jettySize=auto;html=1;exitX=1;exitY=0.5;exitDx=0;exitDy=0;entryX=1;entryY=0.75;entryDx=0;entryDy=0;labelBackgroundColor=#;fontSize=10;fontColor=#000000;strokeColor=#000000;" edge="1" parent="1" source="kXSp-0wj3QZkAN32-yHx-161" target="kXSp-0wj3QZkAN32-yHx-190">
          <mxGeometry relative="1" as="geometry">
            <Array as="points">
              <mxPoint x="240" y="593" />
              <mxPoint x="240" y="689" />
            </Array>
          </mxGeometry>
        </mxCell>
        <mxCell id="kXSp-0wj3QZkAN32-yHx-161" value="&lt;pre style=&quot;font-family: Consolas, monospace;&quot;&gt;&lt;pre style=&quot;font-family: Consolas, monospace;&quot;&gt;EventReceiver&lt;/pre&gt;&lt;/pre&gt;" style="rounded=0;whiteSpace=wrap;html=1;strokeColor=#000000;fontSize=10;fillColor=#fff2cc;labelBackgroundColor=#;fontColor=#000000;" vertex="1" parent="1">
          <mxGeometry x="90" y="580" width="80" height="25" as="geometry" />
        </mxCell>
        <mxCell id="kXSp-0wj3QZkAN32-yHx-174" value="&lt;pre style=&quot;font-family: Consolas, monospace;&quot;&gt;&lt;pre style=&quot;font-family: Consolas, monospace;&quot;&gt;method:&lt;span style=&quot;&quot;&gt;OnEnable&lt;/span&gt;&lt;/pre&gt;&lt;/pre&gt;" style="rounded=0;whiteSpace=wrap;html=1;strokeColor=#000000;fontSize=10;fillColor=none;fontColor=#000000;labelBackgroundColor=#;" vertex="1" parent="1">
          <mxGeometry x="660" y="810" width="100" height="25" as="geometry" />
        </mxCell>
        <mxCell id="kXSp-0wj3QZkAN32-yHx-176" value="HitPoints" style="rounded=0;whiteSpace=wrap;html=1;strokeColor=#000000;fontSize=10;fillColor=none;fontColor=#000000;labelBackgroundColor=#;" vertex="1" parent="1">
          <mxGeometry x="100" y="110" width="50" height="20" as="geometry" />
        </mxCell>
        <mxCell id="kXSp-0wj3QZkAN32-yHx-188" value="&lt;pre style=&quot;font-family: Consolas, monospace;&quot;&gt;&lt;pre style=&quot;font-family: Consolas, monospace;&quot;&gt;HitPointsMechanics_Death&lt;/pre&gt;&lt;/pre&gt;" style="rounded=0;whiteSpace=wrap;html=1;strokeColor=#000000;fontSize=10;fillColor=#fff2cc;labelBackgroundColor=#;fontColor=#000000;" vertex="1" parent="1">
          <mxGeometry x="90" y="620" width="140" height="25" as="geometry" />
        </mxCell>
        <mxCell id="kXSp-0wj3QZkAN32-yHx-189" value="&lt;pre style=&quot;font-family: Consolas, monospace;&quot;&gt;&lt;pre style=&quot;font-family: Consolas, monospace;&quot;&gt;&lt;pre style=&quot;font-family: Consolas, monospace;&quot;&gt;&lt;span style=&quot;&quot;&gt;hitPoints&lt;/span&gt;&lt;/pre&gt;&lt;/pre&gt;&lt;/pre&gt;" style="rounded=0;whiteSpace=wrap;html=1;strokeColor=#000000;fontSize=10;fillColor=none;fontColor=#000000;labelBackgroundColor=#;" vertex="1" parent="1">
          <mxGeometry x="90" y="645" width="110" height="25" as="geometry" />
        </mxCell>
        <mxCell id="kXSp-0wj3QZkAN32-yHx-190" value="&lt;pre style=&quot;font-family: Consolas, monospace;&quot;&gt;&lt;pre style=&quot;font-family: Consolas, monospace;&quot;&gt;&lt;pre style=&quot;font-family: Consolas, monospace;&quot;&gt;deathReceiver&lt;/pre&gt;&lt;/pre&gt;&lt;/pre&gt;" style="rounded=0;whiteSpace=wrap;html=1;strokeColor=#000000;fontSize=10;fillColor=none;fontColor=#000000;labelBackgroundColor=#;" vertex="1" parent="1">
          <mxGeometry x="90" y="670" width="110" height="25" as="geometry" />
        </mxCell>
        <mxCell id="kXSp-0wj3QZkAN32-yHx-195" value="" style="rounded=0;whiteSpace=wrap;html=1;strokeColor=#000000;fontSize=10;fillColor=none;fontColor=#000000;labelBackgroundColor=#;" vertex="1" parent="1">
          <mxGeometry x="650" y="939" width="490" height="230" as="geometry" />
        </mxCell>
        <mxCell id="kXSp-0wj3QZkAN32-yHx-196" value="&lt;pre style=&quot;font-family: Consolas, monospace;&quot;&gt;&lt;pre style=&quot;font-family: Consolas, monospace;&quot;&gt;&lt;span style=&quot;&quot;&gt;DeathMechanics_DisableGameobject&lt;/span&gt;&lt;/pre&gt;&lt;/pre&gt;" style="rounded=0;whiteSpace=wrap;html=1;strokeColor=#000000;fontSize=10;fillColor=#fff2cc;labelBackgroundColor=#;fontColor=#000000;" vertex="1" parent="1">
          <mxGeometry x="650" y="939" width="200" height="20" as="geometry" />
        </mxCell>
        <mxCell id="kXSp-0wj3QZkAN32-yHx-198" value="&lt;pre style=&quot;font-family: Consolas, monospace;&quot;&gt;&lt;pre style=&quot;font-family: Consolas, monospace;&quot;&gt;field:GameObject&lt;/pre&gt;&lt;/pre&gt;" style="rounded=0;whiteSpace=wrap;html=1;strokeColor=#000000;fontSize=10;fillColor=none;fontColor=#000000;labelBackgroundColor=#;" vertex="1" parent="1">
          <mxGeometry x="660" y="969" width="110" height="25" as="geometry" />
        </mxCell>
        <mxCell id="kXSp-0wj3QZkAN32-yHx-199" value="&lt;pre style=&quot;font-family: Consolas, monospace;&quot;&gt;&lt;pre style=&quot;font-family: Consolas, monospace;&quot;&gt;field:EventReceiver&lt;/pre&gt;&lt;/pre&gt;" style="rounded=0;whiteSpace=wrap;html=1;strokeColor=#000000;fontSize=10;fillColor=none;fontColor=#000000;labelBackgroundColor=#;" vertex="1" parent="1">
          <mxGeometry x="660" y="1009" width="110" height="25" as="geometry" />
        </mxCell>
        <mxCell id="kXSp-0wj3QZkAN32-yHx-201" value="&lt;pre style=&quot;font-family: Consolas, monospace;&quot;&gt;&lt;pre style=&quot;font-family: Consolas, monospace;&quot;&gt;&lt;span style=&quot;&quot;&gt;method:&lt;/span&gt;OnDeath&lt;/pre&gt;&lt;/pre&gt;" style="rounded=0;whiteSpace=wrap;html=1;strokeColor=#000000;fontSize=10;fillColor=none;fontColor=#000000;labelBackgroundColor=#;" vertex="1" parent="1">
          <mxGeometry x="660" y="1124" width="150" height="25" as="geometry" />
        </mxCell>
        <mxCell id="kXSp-0wj3QZkAN32-yHx-203" value="&lt;pre style=&quot;font-family: Consolas, monospace;&quot;&gt;&lt;pre style=&quot;font-family: Consolas, monospace;&quot;&gt;method:&lt;span style=&quot;&quot;&gt;OnDisable&lt;/span&gt;&lt;/pre&gt;&lt;/pre&gt;" style="rounded=0;whiteSpace=wrap;html=1;strokeColor=#000000;fontSize=10;fillColor=none;fontColor=#000000;labelBackgroundColor=#;" vertex="1" parent="1">
          <mxGeometry x="660" y="1089" width="100" height="25" as="geometry" />
        </mxCell>
        <mxCell id="kXSp-0wj3QZkAN32-yHx-205" value="&lt;pre style=&quot;font-family: Consolas, monospace;&quot;&gt;&lt;pre style=&quot;font-family: Consolas, monospace;&quot;&gt;method:&lt;span style=&quot;&quot;&gt;OnEnable&lt;/span&gt;&lt;/pre&gt;&lt;/pre&gt;" style="rounded=0;whiteSpace=wrap;html=1;strokeColor=#000000;fontSize=10;fillColor=none;fontColor=#000000;labelBackgroundColor=#;" vertex="1" parent="1">
          <mxGeometry x="660" y="1049" width="100" height="25" as="geometry" />
        </mxCell>
        <mxCell id="kXSp-0wj3QZkAN32-yHx-214" value="&lt;pre style=&quot;font-family: Consolas, monospace;&quot;&gt;&lt;pre style=&quot;font-family: Consolas, monospace;&quot;&gt;&lt;pre style=&quot;font-family: Consolas, monospace;&quot;&gt;&lt;span style=&quot;&quot;&gt;Value&lt;/span&gt; отдает&lt;/pre&gt;&lt;pre style=&quot;font-family: Consolas, monospace;&quot;&gt; field:&lt;span style=&quot;&quot;&gt;int и при изменении&lt;/span&gt;&lt;/pre&gt;&lt;pre style=&quot;font-family: Consolas, monospace;&quot;&gt;&lt;span style=&quot;&quot;&gt; &lt;/span&gt;field:&lt;span style=&quot;&quot;&gt;int, уведомляет через&lt;/span&gt;&lt;/pre&gt;&lt;pre style=&quot;font-family: Consolas, monospace;&quot;&gt;Event:Action&lt;span style=&quot;&quot;&gt; &lt;/span&gt;&lt;/pre&gt;&lt;/pre&gt;&lt;/pre&gt;" style="rounded=0;whiteSpace=wrap;html=1;strokeColor=#000000;fontSize=10;fillColor=none;fontColor=#000000;labelBackgroundColor=#;" vertex="1" parent="1">
          <mxGeometry x="985" y="570" width="155" height="120" as="geometry" />
        </mxCell>
        <mxCell id="kXSp-0wj3QZkAN32-yHx-215" value="&lt;pre style=&quot;font-family: Consolas, monospace;&quot;&gt;&lt;pre style=&quot;font-family: Consolas, monospace;&quot;&gt;В method:OnEnable подписка на изменения&lt;/pre&gt;&lt;pre style=&quot;font-family: Consolas, monospace;&quot;&gt; значения IntBehaviour и вызов method:&lt;span style=&quot;&quot;&gt;OnHitPointsChanged&lt;/span&gt; &lt;/pre&gt;&lt;pre style=&quot;font-family: Consolas, monospace;&quot;&gt;В field:EventReceiver если значение field:IntBehaviour&lt;/pre&gt;&lt;pre style=&quot;font-family: Consolas, monospace;&quot;&gt;меньше 0 то вызов EventReceiver.Call &lt;/pre&gt;&lt;/pre&gt;" style="rounded=0;whiteSpace=wrap;html=1;strokeColor=#000000;fontSize=10;fillColor=none;fontColor=#000000;labelBackgroundColor=#;" vertex="1" parent="1">
          <mxGeometry x="820" y="700" width="320" height="220" as="geometry" />
        </mxCell>
        <mxCell id="kXSp-0wj3QZkAN32-yHx-216" value="&lt;pre style=&quot;font-family: Consolas, monospace;&quot;&gt;&lt;pre style=&quot;font-family: Consolas, monospace;&quot;&gt;В method:OnEnable подписка на field:EventReceiver&lt;/pre&gt;&lt;pre style=&quot;font-family: Consolas, monospace;&quot;&gt; и вызов method:&lt;span style=&quot;&quot;&gt;OnDeath&lt;/span&gt;&lt;/pre&gt;&lt;pre style=&quot;font-family: Consolas, monospace;&quot;&gt;В method:&lt;span style=&quot;&quot;&gt;OnDeath выключается &lt;/span&gt;field:GameObject&lt;/pre&gt;&lt;/pre&gt;" style="rounded=0;whiteSpace=wrap;html=1;strokeColor=#000000;fontSize=10;fillColor=none;fontColor=#000000;labelBackgroundColor=#;" vertex="1" parent="1">
          <mxGeometry x="860" y="939" width="280" height="230" as="geometry" />
        </mxCell>
        <mxCell id="kXSp-0wj3QZkAN32-yHx-220" value="Death_DisableGameobject" style="rounded=0;whiteSpace=wrap;html=1;strokeColor=#000000;fontSize=10;fillColor=none;fontColor=#000000;labelBackgroundColor=#;" vertex="1" parent="1">
          <mxGeometry x="80" y="730" width="130" height="20" as="geometry" />
        </mxCell>
        <mxCell id="kXSp-0wj3QZkAN32-yHx-222" value="&lt;pre style=&quot;font-family: Consolas, monospace;&quot;&gt;&lt;pre style=&quot;font-family: Consolas, monospace;&quot;&gt;&lt;pre style=&quot;font-family: Consolas, monospace;&quot;&gt;&lt;span style=&quot;&quot;&gt;DeathMechanics_DisableGameobject&lt;/span&gt;&lt;/pre&gt;&lt;/pre&gt;&lt;/pre&gt;" style="rounded=0;whiteSpace=wrap;html=1;strokeColor=#000000;fontSize=10;fillColor=#fff2cc;labelBackgroundColor=#;fontColor=#000000;" vertex="1" parent="1">
          <mxGeometry x="80" y="755" width="190" height="25" as="geometry" />
        </mxCell>
        <mxCell id="kXSp-0wj3QZkAN32-yHx-219" value="" style="rounded=0;whiteSpace=wrap;html=1;strokeColor=#000000;fontSize=10;fillColor=none;fontColor=#000000;labelBackgroundColor=#;" vertex="1" parent="1">
          <mxGeometry x="80" y="730" width="220" height="160" as="geometry" />
        </mxCell>
        <mxCell id="kXSp-0wj3QZkAN32-yHx-229" value="&lt;pre style=&quot;font-family: Consolas, monospace;&quot;&gt;&lt;pre style=&quot;font-family: Consolas, monospace;&quot;&gt;&lt;pre style=&quot;font-family: Consolas, monospace;&quot;&gt;target&lt;/pre&gt;&lt;/pre&gt;&lt;/pre&gt;" style="rounded=0;whiteSpace=wrap;html=1;strokeColor=#000000;fontSize=10;fillColor=none;fontColor=#000000;labelBackgroundColor=#;" vertex="1" parent="1">
          <mxGeometry x="80" y="780" width="110" height="25" as="geometry" />
        </mxCell>
        <mxCell id="kXSp-0wj3QZkAN32-yHx-230" value="&lt;pre style=&quot;font-family: Consolas, monospace;&quot;&gt;&lt;pre style=&quot;font-family: Consolas, monospace;&quot;&gt;&lt;pre style=&quot;font-family: Consolas, monospace;&quot;&gt;&lt;pre style=&quot;font-family: Consolas, monospace;&quot;&gt;&lt;span style=&quot;&quot;&gt;deathReceiver&lt;/span&gt;&lt;/pre&gt;&lt;/pre&gt;&lt;/pre&gt;&lt;/pre&gt;" style="rounded=0;whiteSpace=wrap;html=1;strokeColor=#000000;fontSize=10;fillColor=none;fontColor=#000000;labelBackgroundColor=#;" vertex="1" parent="1">
          <mxGeometry x="80" y="805" width="110" height="25" as="geometry" />
        </mxCell>
        <mxCell id="kXSp-0wj3QZkAN32-yHx-232" style="edgeStyle=orthogonalEdgeStyle;rounded=0;orthogonalLoop=1;jettySize=auto;html=1;exitX=0;exitY=0.5;exitDx=0;exitDy=0;entryX=1;entryY=0.5;entryDx=0;entryDy=0;labelBackgroundColor=#;strokeColor=#000000;fontSize=10;fontColor=#000000;" edge="1" parent="1" source="kXSp-0wj3QZkAN32-yHx-231" target="kXSp-0wj3QZkAN32-yHx-229">
          <mxGeometry relative="1" as="geometry" />
        </mxCell>
        <mxCell id="kXSp-0wj3QZkAN32-yHx-231" value="&lt;pre style=&quot;&quot;&gt;&lt;pre style=&quot;&quot;&gt;&lt;font face=&quot;Helvetica&quot;&gt;Hero&lt;/font&gt;&lt;/pre&gt;&lt;/pre&gt;" style="rounded=0;whiteSpace=wrap;html=1;strokeColor=#666666;fontSize=10;fillColor=#f5f5f5;labelBackgroundColor=#;fontColor=#000000;" vertex="1" parent="1">
          <mxGeometry x="320" y="777.5" width="50" height="30" as="geometry" />
        </mxCell>
        <mxCell id="kXSp-0wj3QZkAN32-yHx-234" style="edgeStyle=orthogonalEdgeStyle;rounded=0;orthogonalLoop=1;jettySize=auto;html=1;exitX=0;exitY=0.5;exitDx=0;exitDy=0;entryX=1;entryY=0.5;entryDx=0;entryDy=0;labelBackgroundColor=#;strokeColor=#000000;fontSize=10;fontColor=#000000;" edge="1" parent="1" source="kXSp-0wj3QZkAN32-yHx-233" target="kXSp-0wj3QZkAN32-yHx-230">
          <mxGeometry relative="1" as="geometry" />
        </mxCell>
        <mxCell id="kXSp-0wj3QZkAN32-yHx-233" value="&lt;pre style=&quot;font-family: Consolas, monospace;&quot;&gt;&lt;pre style=&quot;font-family: Consolas, monospace;&quot;&gt;&lt;span style=&quot;font-family: Helvetica;&quot;&gt;Death&lt;/span&gt;&lt;br&gt;&lt;/pre&gt;&lt;/pre&gt;" style="rounded=0;whiteSpace=wrap;html=1;strokeColor=#000000;fontSize=10;fillColor=#d5e8d4;labelBackgroundColor=#;fontColor=#000000;" vertex="1" parent="1">
          <mxGeometry x="320" y="820" width="50" height="30" as="geometry" />
        </mxCell>
        <mxCell id="kXSp-0wj3QZkAN32-yHx-235" value="Death" style="rounded=0;whiteSpace=wrap;html=1;strokeColor=#000000;fontSize=10;fillColor=none;fontColor=#000000;labelBackgroundColor=#;" vertex="1" parent="1">
          <mxGeometry x="170" y="110" width="50" height="20" as="geometry" />
        </mxCell>
        <mxCell id="kXSp-0wj3QZkAN32-yHx-236" value="Death" style="rounded=0;whiteSpace=wrap;html=1;strokeColor=#000000;fontSize=10;fillColor=none;fontColor=#000000;labelBackgroundColor=#;" vertex="1" parent="1">
          <mxGeometry x="240" y="110" width="50" height="20" as="geometry" />
        </mxCell>
      </root>
    </mxGraphModel>
  </diagram>
</mxfile>
